<svg width="60" height="60" viewBox="0 0 60 60" fill="none" xmlns="http://www.w3.org/2000/svg">
<path d="M28.548 18C28.1502 18 27.7686 18.158 27.4873 18.4393C27.206 18.7206 27.048 19.1022 27.048 19.5C27.048 19.8978 27.206 20.2794 27.4873 20.5607C27.7686 20.842 28.1502 21 28.548 21H36.879L24.438 33.438C24.2985 33.5775 24.1879 33.743 24.1124 33.9252C24.037 34.1075 23.9981 34.3028 23.9981 34.5C23.9981 34.6972 24.037 34.8925 24.1124 35.0748C24.1879 35.257 24.2985 35.4225 24.438 35.562C24.5775 35.7015 24.743 35.8121 24.9253 35.8876C25.1075 35.963 25.3028 36.0019 25.5 36.0019C25.6972 36.0019 25.8925 35.963 26.0748 35.8876C26.257 35.8121 26.4225 35.7015 26.562 35.562L39 23.121V31.452C39 31.8498 39.158 32.2314 39.4393 32.5127C39.7206 32.794 40.1022 32.952 40.5 32.952C40.8978 32.952 41.2794 32.794 41.5607 32.5127C41.842 32.2314 42 31.8498 42 31.452V19.5C42 19.1022 41.842 18.7206 41.5607 18.4393C41.2794 18.158 40.8978 18 40.5 18H28.548ZM38.298 51C40.0847 51.0004 41.8128 50.363 43.1712 49.2026C44.5297 48.0421 45.4293 46.4348 45.708 44.67C47.2406 44.1974 48.5814 43.2461 49.5338 41.9558C50.4862 40.6654 51 39.1038 51 37.5V16.5C51 14.5109 50.2098 12.6032 48.8033 11.1967C47.3968 9.79018 45.4891 9 43.5 9H22.5C20.8785 8.99992 19.3006 9.52514 18.0026 10.497C16.7046 11.4689 15.7564 12.8351 15.3 14.391C13.5412 14.6761 11.9414 15.578 10.787 16.9352C9.63263 18.2924 8.99914 20.0163 9 21.798V40.5C9 43.2848 10.1062 45.9555 12.0754 47.9246C14.0445 49.8938 16.7152 51 19.5 51H38.298ZM12 21.798C11.9989 20.8665 12.2869 19.9576 12.8242 19.1968C13.3616 18.4359 14.1218 17.8605 15 17.55V37.5C15 39.4891 15.7902 41.3968 17.1967 42.8033C18.6032 44.2098 20.5109 45 22.5 45H42.54C42.2298 45.8773 41.6554 46.6368 40.8957 47.174C40.136 47.7113 39.2285 47.9999 38.298 48H19.5C17.5109 48 15.6032 47.2098 14.1967 45.8033C12.7902 44.3968 12 42.4891 12 40.5V21.798ZM22.5 12H43.5C44.6935 12 45.8381 12.4741 46.682 13.318C47.5259 14.1619 48 15.3065 48 16.5V37.5C48 38.6935 47.5259 39.8381 46.682 40.682C45.8381 41.5259 44.6935 42 43.5 42H22.5C21.3065 42 20.1619 41.5259 19.318 40.682C18.4741 39.8381 18 38.6935 18 37.5V16.5C18 15.3065 18.4741 14.1619 19.318 13.318C20.1619 12.4741 21.3065 12 22.5 12V12Z" fill="white"/>
</svg>
