<svg width="40" height="40" viewBox="0 0 40 40" fill="none" xmlns="http://www.w3.org/2000/svg">
<path d="M28.964 12.052L30.28 16H24V10H26.118C26.7477 10.0001 27.3615 10.1983 27.8723 10.5666C28.3831 10.9349 28.765 11.4545 28.964 12.052ZM30.946 18L30.952 18.02L31.484 18.152L31.728 18.212C32.3773 18.3744 32.9536 18.7493 33.3653 19.2769C33.7769 19.8046 34.0004 20.4547 34 21.124V24.5C34 24.82 33.9 25.12 33.726 25.364C33.3681 24.3274 32.6793 23.4372 31.7657 22.8306C30.8521 22.224 29.7644 21.9345 28.6702 22.0068C27.5759 22.0791 26.5358 22.5091 25.7099 23.2307C24.8841 23.9523 24.3184 24.9253 24.1 26H15.9C15.6816 24.9253 15.1159 23.9523 14.2901 23.2307C13.4642 22.5091 12.4241 22.0791 11.3298 22.0068C10.2356 21.9345 9.14788 22.224 8.2343 22.8306C7.32072 23.4372 6.63193 24.3274 6.274 25.364C6.0954 25.1113 5.99966 24.8094 6 24.5V22.074C5.99977 21.4126 6.2181 20.7697 6.62103 20.2453C7.02396 19.7208 7.5889 19.3442 8.228 19.174L12.632 18H30.946ZM14.256 16L16.732 11.544C16.9915 11.0765 17.3712 10.6869 17.8319 10.4154C18.2925 10.144 18.8173 10.0005 19.352 10H22V16H14.256ZM4 24.5C4 25.914 4.84 27.132 6.046 27.684C6.20616 28.8541 6.77537 29.9298 7.65277 30.7204C8.53017 31.511 9.65911 31.9655 10.8396 32.0034C12.02 32.0412 13.1757 31.66 14.102 30.9272C15.0282 30.1945 15.6652 29.1575 15.9 28H24.1C24.3348 29.1575 24.9718 30.1945 25.898 30.9272C26.8243 31.66 27.98 32.0412 29.1604 32.0034C30.3409 31.9655 31.4698 31.511 32.3472 30.7204C33.2246 29.9298 33.7938 28.8541 33.954 27.684C34.5644 27.4052 35.0817 26.9569 35.4445 26.3924C35.8072 25.8279 36.0001 25.171 36 24.5V21.124C36 20.0611 35.6613 19.0258 35.033 18.1684C34.4048 17.311 33.5196 16.6762 32.506 16.356L30.86 11.418C30.5282 10.4232 29.892 9.55783 29.0413 8.94444C28.1907 8.33105 27.1687 8.00066 26.12 8H19.354C18.4618 7.99945 17.5856 8.23766 16.8165 8.68992C16.0474 9.14219 15.4133 9.79202 14.98 10.572L11.9 16.126L7.714 17.242C6.64894 17.5255 5.70738 18.1529 5.03572 19.0267C4.36407 19.9006 3.99995 20.9719 4 22.074V24.5ZM29 24C29.7956 24 30.5587 24.3161 31.1213 24.8787C31.6839 25.4413 32 26.2044 32 27C32 27.7957 31.6839 28.5587 31.1213 29.1213C30.5587 29.6839 29.7956 30 29 30C28.2044 30 27.4413 29.6839 26.8787 29.1213C26.3161 28.5587 26 27.7957 26 27C26 26.2044 26.3161 25.4413 26.8787 24.8787C27.4413 24.3161 28.2044 24 29 24ZM11 24C11.7956 24 12.5587 24.3161 13.1213 24.8787C13.6839 25.4413 14 26.2044 14 27C14 27.7957 13.6839 28.5587 13.1213 29.1213C12.5587 29.6839 11.7956 30 11 30C10.2044 30 9.44129 29.6839 8.87868 29.1213C8.31607 28.5587 8 27.7957 8 27C8 26.2044 8.31607 25.4413 8.87868 24.8787C9.44129 24.3161 10.2044 24 11 24Z" fill="#322FB5"/>
</svg>
