<svg width="40" height="40" viewBox="0 0 40 40" fill="none" xmlns="http://www.w3.org/2000/svg">
<path d="M31.1111 2.22222H8.88891C8.29954 2.22222 7.73431 2.45635 7.31756 2.8731C6.90081 3.28984 6.66669 3.85507 6.66669 4.44444V35.5556C6.66669 36.1449 6.90081 36.7102 7.31756 37.1269C7.73431 37.5437 8.29954 37.7778 8.88891 37.7778H31.1111C31.7005 37.7778 32.2657 37.5437 32.6825 37.1269C33.0992 36.7102 33.3334 36.1449 33.3334 35.5556V4.44444C33.3334 3.85507 33.0992 3.28984 32.6825 2.8731C32.2657 2.45635 31.7005 2.22222 31.1111 2.22222ZM8.88891 35.5556V4.44444H31.1111V35.5556H8.88891Z" fill="#9C29F7"/>
<path d="M13.3333 8.88889H28.5222V6.66666H12.2222C11.9275 6.66666 11.6449 6.78373 11.4365 6.9921C11.2281 7.20047 11.1111 7.48309 11.1111 7.77778V12.9667H13.3333V8.88889Z" fill="#9C29F7"/>
<path d="M13.3333 17.7778H11.1111V20H15.5555V15.5556H13.3333V17.7778Z" fill="#9C29F7"/>
<path d="M26.6667 17.7778H24.4445V20H28.8889V15.5556H26.6667V17.7778Z" fill="#9C29F7"/>
<path d="M20 17.7778H17.7778V20H22.2222V15.5556H20V17.7778Z" fill="#9C29F7"/>
<path d="M13.3333 24.4445H11.1111V26.6667H15.5555V22.2222H13.3333V24.4445Z" fill="#9C29F7"/>
<path d="M26.6667 24.4445H24.4445V26.6667H28.8889V22.2222H26.6667V24.4445Z" fill="#9C29F7"/>
<path d="M20 24.4445H17.7778V26.6667H22.2222V22.2222H20V24.4445Z" fill="#9C29F7"/>
<path d="M13.3333 31.1111H11.1111V33.3333H15.5555V28.8889H13.3333V31.1111Z" fill="#9C29F7"/>
<path d="M26.6667 31.1111H24.4445V33.3333H28.8889V28.8889H26.6667V31.1111Z" fill="#9C29F7"/>
<path d="M20 31.1111H17.7778V33.3333H22.2222V28.8889H20V31.1111Z" fill="#9C29F7"/>
</svg>
