<svg width="12" height="12" viewBox="0 0 12 12" fill="none" xmlns="http://www.w3.org/2000/svg">
<path d="M7.53705 5.99999L11.3921 2.14499C11.5822 1.93772 11.685 1.66501 11.6789 1.38379C11.6728 1.10257 11.5583 0.834571 11.3593 0.635736C11.1604 0.436901 10.8923 0.322596 10.6111 0.316681C10.3298 0.310766 10.0572 0.413698 9.85005 0.603992L9.85105 0.602992L5.99605 4.45799L2.14105 0.602992C1.93378 0.412833 1.66107 0.310077 1.37985 0.316175C1.09863 0.322272 0.830633 0.436751 0.631798 0.635715C0.432963 0.834679 0.318658 1.10275 0.312743 1.38398C0.306828 1.6652 0.40976 1.93784 0.600054 2.14499L0.599054 2.14399L4.45405 5.99899L0.599054 9.85399C0.490591 9.9535 0.403385 10.0739 0.342687 10.208C0.281989 10.3421 0.249053 10.4871 0.245862 10.6343C0.242671 10.7814 0.269292 10.9277 0.324121 11.0643C0.37895 11.2009 0.460854 11.325 0.564902 11.4291C0.66895 11.5332 0.79299 11.6152 0.929555 11.6701C1.06612 11.7251 1.21239 11.7518 1.35955 11.7487C1.50671 11.7456 1.65172 11.7127 1.78586 11.6521C1.91999 11.5915 2.04048 11.5044 2.14005 11.396L2.14105 11.395L5.99605 7.53999L9.85105 11.395C9.95056 11.5035 10.071 11.5907 10.2051 11.6514C10.3392 11.7121 10.4842 11.745 10.6313 11.7482C10.7785 11.7514 10.9248 11.7248 11.0614 11.6699C11.198 11.6151 11.3221 11.5332 11.4262 11.4291C11.5303 11.3251 11.6123 11.2011 11.6672 11.0645C11.7221 10.9279 11.7488 10.7817 11.7457 10.6345C11.7426 10.4873 11.7098 10.3423 11.6492 10.2082C11.5886 10.0741 11.5015 9.95357 11.3931 9.85399L11.3921 9.85299L7.53705 5.99999Z" fill="white"/>
</svg>
