<svg width="60" height="60" viewBox="0 0 60 60" fill="none" xmlns="http://www.w3.org/2000/svg">
<path d="M56.5622 21.1641L38.8322 3.43125C37.8441 2.44219 36.5325 1.875 35.2331 1.875C34.2909 1.875 33.4491 2.17219 32.7938 2.73562L3.53251 27.9094C3.03455 28.3324 2.63029 28.8546 2.34554 29.4427C2.06079 30.0307 1.90181 30.6717 1.87876 31.3247C1.82626 32.7253 2.36814 34.0678 3.40501 35.1056L24.8934 56.5959C25.8806 57.5822 27.1584 58.125 28.4916 58.125C29.175 58.1241 29.8502 57.9755 30.4709 57.6894C31.0916 57.4034 31.6432 56.9865 32.0878 56.4675L57.2578 27.2034C58.6444 25.5928 58.3388 22.9406 56.5622 21.1641ZM3.5822 31.3884C3.59707 30.9701 3.69915 30.5594 3.8819 30.1828C4.06465 29.8062 4.32403 29.4718 4.64345 29.2013L33.9066 4.02844C34.2459 3.735 34.7053 3.57938 35.2331 3.57938C36.0713 3.57938 36.9666 3.975 37.6275 4.63688L39.1641 6.1725L6.53532 35.8247L4.61064 33.8991C3.9122 33.2006 3.54657 32.3091 3.5822 31.3884ZM55.965 26.0925L30.7969 55.3566C30.5136 55.6914 30.1604 55.9602 29.7621 56.1441C29.3639 56.3279 28.9302 56.4223 28.4916 56.4206C27.6131 56.4206 26.7628 56.0541 26.0972 55.3894L14.0944 43.3847L45.4453 12.4566L55.3575 22.3688C56.4863 23.4984 56.76 25.17 55.965 26.0925Z" fill="white"/>
<path d="M44.8472 17.4441L21.0459 41.7384L28.1034 48.7969L29.1731 47.6287C29.8894 47.7919 30.7247 47.5697 31.3266 46.9547C32.2256 46.035 32.7684 44.7159 33.1078 43.3256L51.0816 23.6794L44.8472 17.4441ZM44.4572 25.9575C43.7972 26.2509 42.6787 26.5781 43.7634 25.3116L44.4937 25.8787C44.4825 25.9059 44.4684 25.9312 44.4572 25.9575ZM48.6131 23.0569C48.6225 23.0484 48.6178 23.0372 48.6234 23.0287L49.3134 23.7187L36.3947 37.8412C36.9019 36.8044 37.2806 35.7281 37.6472 34.6378C37.8103 34.1484 38.2312 34.2609 38.5659 33.9234C39.2475 33.2353 39.9056 32.535 40.5694 31.8506C41.4094 30.9862 41.6981 29.8397 42.4716 28.9706C43.3031 28.0387 44.1009 27.5044 44.6297 26.4591C46.1841 25.785 47.5678 24.0534 48.6131 23.0569ZM22.845 41.73L44.8566 19.2609L48.375 22.7803C48.3647 22.7859 48.3544 22.7803 48.345 22.7897C47.7337 23.3709 47.1075 23.9475 46.4578 24.5081C45.9693 24.9264 45.4609 25.321 44.9344 25.6903C45.0169 25.3059 44.9756 24.6328 44.43 24.5925C43.2712 24.5016 42.255 26.9531 43.8 26.7178C43.9116 26.7 44.0212 26.6569 44.1319 26.6259C43.9678 26.9259 43.7756 27.2109 43.575 27.4819C43.1231 28.0978 42.405 28.4569 41.8922 29.0325C41.2406 29.7619 40.9856 30.8081 40.2881 31.5684C39.9797 31.9041 38.2969 34.0547 37.6987 33.8016C37.6247 33.7725 37.5197 33.8128 37.4944 33.8841C37.3012 34.44 37.1119 35.0006 36.9206 35.5612C36.8878 35.6597 36.6872 36.0769 36.4903 36.4903C36.6881 35.5809 36.7134 34.5984 36.6131 34.1344C36.5775 33.9703 36.3825 33.9581 36.2897 34.0322C35.475 34.6837 35.2341 36.2325 35.6728 37.4091C35.4281 37.6603 35.1197 37.8384 34.725 37.9219C34.4953 37.7953 34.3275 38.1366 34.5581 38.2641C34.6331 38.3044 34.7006 38.3241 34.7709 38.3503C34.4409 38.6175 34.0641 38.8791 33.6591 39.1416C33.7612 37.5028 33.8766 34.2984 32.0203 33.8747C31.9284 33.8541 31.8497 33.8794 31.8066 33.9572C30.9947 35.3841 29.8331 38.3756 31.5131 39.9272C31.7109 40.11 31.9716 39.8306 31.7737 39.6478C30.4847 38.4572 31.2516 36.2288 31.7203 35.0109C32.4469 33.1303 33.2137 36.7453 33.2531 37.3012C33.3028 37.9969 33.2944 38.6972 33.2578 39.3975C30.9291 40.8562 27.9562 42.4256 27.7284 45.3572C27.6778 46.0191 27.8269 46.5347 28.0931 46.9134L28.0622 46.9481L22.845 41.73ZM36.1387 34.7878C36.3675 35.2528 36.4022 35.7056 36.2409 36.1434C36.2002 36.4434 36.1052 36.7334 35.9606 36.9994C35.7862 36.2475 35.8912 35.4037 36.1387 34.7878ZM28.5506 46.4156C28.3903 46.0331 28.2619 45.5494 28.1737 44.9419C28.3011 44.2709 28.6229 43.6521 29.0991 43.1625C30.21 41.7844 31.7625 40.8741 33.2334 39.9337C33.1898 40.4642 33.1228 40.9926 33.0328 41.5172L28.5506 46.4156ZM31.6978 45.6525C31.4158 46.2198 31.0122 46.7179 30.5156 47.1112C30.1003 47.3634 29.7403 47.4337 29.4262 47.3512L32.3428 44.1656C32.1553 44.6719 31.9416 45.1706 31.6978 45.6525ZM33.6234 39.6816C34.1531 39.3347 34.665 38.9775 35.1337 38.5866C35.1919 38.5378 35.1928 38.4797 35.175 38.4225C35.475 38.4 35.7234 38.2106 35.9278 37.9266C35.9447 37.9538 35.955 37.9866 35.9747 38.0128C35.9932 38.0415 36.018 38.0657 36.0473 38.0834C36.0765 38.1011 36.1094 38.1119 36.1434 38.115L33.5062 40.9969C33.5569 40.5441 33.5972 40.0997 33.6234 39.6816Z" fill="white"/>
</svg>
