<svg width="40" height="40" viewBox="0 0 40 40" fill="none" xmlns="http://www.w3.org/2000/svg">
<path d="M19.8333 11.6667C24.5277 11.6667 28.3333 15.3977 28.3333 20C28.3333 24.6023 24.5277 28.3333 19.8333 28.3333C17.6563 28.3333 15.6705 27.531 14.1667 26.2114" stroke="#43CD2D" stroke-width="4" stroke-linecap="round" stroke-linejoin="round"/>
<path d="M20 3.33334C29.2048 3.33334 36.6667 10.7953 36.6667 20C36.6667 29.2048 29.2048 36.6667 20 36.6667C15.488 36.6667 11.3948 34.8738 8.39383 31.9614C5.27278 28.9325 3.33333 24.6928 3.33333 20C3.33333 15.5272 5.09528 11.4658 7.96297 8.47225" stroke="#43CD2D" stroke-width="4" stroke-linecap="round" stroke-linejoin="round"/>
<path d="M7.96305 8.47225L20.0001 20L8.39392 31.9614" stroke="#43CD2D" stroke-width="4" stroke-linecap="round" stroke-linejoin="round"/>
</svg>
