<svg width="24" height="24" viewBox="0 0 24 24" fill="none" xmlns="http://www.w3.org/2000/svg">
<path d="M9.85714 5.14286H14.1429C14.1429 4.57454 13.9171 4.02949 13.5152 3.62763C13.1134 3.22576 12.5683 3 12 3C11.4317 3 10.8866 3.22576 10.4848 3.62763C10.0829 4.02949 9.85714 4.57454 9.85714 5.14286ZM8.57143 5.14286C8.57143 4.23354 8.93265 3.36147 9.57563 2.71849C10.2186 2.07551 11.0907 1.71428 12 1.71428C12.9093 1.71428 13.7814 2.07551 14.4244 2.71849C15.0673 3.36147 15.4286 4.23354 15.4286 5.14286H20.7857C20.9562 5.14286 21.1197 5.21059 21.2403 5.33114C21.3608 5.4517 21.4286 5.61522 21.4286 5.78571C21.4286 5.95621 21.3608 6.11972 21.2403 6.24028C21.1197 6.36084 20.9562 6.42857 20.7857 6.42857H19.6629L18.6197 18.9454C18.5438 19.856 18.1285 20.7048 17.4561 21.3235C16.7838 21.9422 15.9034 22.2856 14.9897 22.2857H9.01028C8.09656 22.2856 7.21623 21.9422 6.54386 21.3235C5.87149 20.7048 5.45618 19.856 5.38028 18.9454L4.33714 6.42857H3.21428C3.04379 6.42857 2.88027 6.36084 2.75971 6.24028C2.63916 6.11972 2.57143 5.95621 2.57143 5.78571C2.57143 5.61522 2.63916 5.4517 2.75971 5.33114C2.88027 5.21059 3.04379 5.14286 3.21428 5.14286H8.57143ZM6.66171 18.8383C6.71073 19.4275 6.97939 19.9768 7.41441 20.3772C7.84943 20.7776 8.41904 20.9999 9.01028 21H14.9897C15.581 20.9999 16.1506 20.7776 16.5856 20.3772C17.0206 19.9768 17.2893 19.4275 17.3383 18.8383L18.3737 6.42857H5.62714L6.66171 18.8383ZM10.0714 9.42857C10.2419 9.42857 10.4054 9.4963 10.526 9.61686C10.6466 9.73742 10.7143 9.90093 10.7143 10.0714V17.3571C10.7143 17.5276 10.6466 17.6912 10.526 17.8117C10.4054 17.9323 10.2419 18 10.0714 18C9.90093 18 9.73742 17.9323 9.61686 17.8117C9.4963 17.6912 9.42857 17.5276 9.42857 17.3571V10.0714C9.42857 9.90093 9.4963 9.73742 9.61686 9.61686C9.73742 9.4963 9.90093 9.42857 10.0714 9.42857ZM14.5714 10.0714C14.5714 9.90093 14.5037 9.73742 14.3831 9.61686C14.2626 9.4963 14.0991 9.42857 13.9286 9.42857C13.7581 9.42857 13.5946 9.4963 13.474 9.61686C13.3534 9.73742 13.2857 9.90093 13.2857 10.0714V17.3571C13.2857 17.5276 13.3534 17.6912 13.474 17.8117C13.5946 17.9323 13.7581 18 13.9286 18C14.0991 18 14.2626 17.9323 14.3831 17.8117C14.5037 17.6912 14.5714 17.5276 14.5714 17.3571V10.0714Z" fill="#FD1919"/>
</svg>
