<svg width="40" height="40" viewBox="0 0 40 40" fill="none" xmlns="http://www.w3.org/2000/svg">
<path d="M13.3333 33.3333C12.4167 33.3333 11.6322 33.0072 10.98 32.355C10.3267 31.7017 10 30.9167 10 30V25H15V21.25C14.0278 21.1944 13.1044 20.9789 12.23 20.6033C11.3544 20.2289 10.5556 19.6667 9.83333 18.9167V17.0833H7.91667L2.5 11.6667C3.5 10.3889 4.73611 9.48611 6.20833 8.95833C7.68056 8.43055 9.16667 8.16666 10.6667 8.16666C11.4167 8.16666 12.1461 8.22222 12.855 8.33333C13.5628 8.44444 14.2778 8.65278 15 8.95833V6.66666H35V28.3333C35 29.7222 34.5139 30.9028 33.5417 31.875C32.5694 32.8472 31.3889 33.3333 30 33.3333H13.3333ZM18.3333 25H28.3333V28.3333C28.3333 28.8056 28.4933 29.2011 28.8133 29.52C29.1322 29.84 29.5278 30 30 30C30.4722 30 30.8678 29.84 31.1867 29.52C31.5067 29.2011 31.6667 28.8056 31.6667 28.3333V10H18.3333V11L28.3333 21V23.3333H26L21.25 18.5833L20.9167 18.9167C20.5278 19.3056 20.1178 19.6528 19.6867 19.9583C19.2567 20.2639 18.8056 20.5 18.3333 20.6667V25ZM9.33333 13.75H13.1667V17.3333C13.5 17.5556 13.8472 17.7083 14.2083 17.7917C14.5694 17.875 14.9444 17.9167 15.3333 17.9167C15.9722 17.9167 16.5489 17.8194 17.0633 17.625C17.5767 17.4306 18.0833 17.0833 18.5833 16.5833L18.9167 16.25L16.5833 13.9167C15.7778 13.1111 14.875 12.5067 13.875 12.1033C12.875 11.7011 11.8056 11.5 10.6667 11.5C10.1111 11.5 9.58333 11.5417 9.08333 11.625C8.58333 11.7083 8.08333 11.8333 7.58333 12L9.33333 13.75ZM13.3333 30H25.25C25.1667 29.75 25.1044 29.4861 25.0633 29.2083C25.0211 28.9305 25 28.6389 25 28.3333H13.3333V30ZM13.3333 30V28.3333V30Z" fill="#3E94F9"/>
</svg>
