<svg width="25" height="24" viewBox="0 0 25 24" fill="none" xmlns="http://www.w3.org/2000/svg">
<path d="M22.6253 11.5266L12.5933 1.52663C12.468 1.40246 12.2985 1.33276 12.1218 1.33276C11.9452 1.33276 11.7756 1.40246 11.6503 1.52663L1.61834 11.5266C1.50877 11.6542 1.45152 11.8182 1.45802 11.986C1.46452 12.1538 1.5343 12.3129 1.65341 12.4317C1.77252 12.5504 1.93219 12.62 2.10051 12.6264C2.26883 12.6329 2.4334 12.5758 2.56135 12.4666L12.1185 2.93996L21.6756 12.4733C21.8036 12.5825 21.9682 12.6396 22.1365 12.6331C22.3048 12.6266 22.4645 12.5571 22.5836 12.4383C22.7027 12.3196 22.7725 12.1604 22.779 11.9927C22.7855 11.8249 22.7282 11.6608 22.6187 11.5333L22.6253 11.5266Z" fill="#737373"/>
<path d="M18.8064 21.3334H15.4624V14.6668H8.77437V21.3334H5.43037V12.0001L4.09277 13.3334V21.3334C4.09277 21.687 4.2337 22.0262 4.48455 22.2762C4.7354 22.5263 5.07562 22.6668 5.43037 22.6668H10.112V16.0001H14.1248V22.6668H18.8064C19.1611 22.6668 19.5014 22.5263 19.7522 22.2762C20.003 22.0262 20.144 21.687 20.144 21.3334V13.1734L18.8064 11.8401V21.3334Z" fill="#737373"/>
</svg>
