<svg width="40" height="40" viewBox="0 0 40 40" fill="none" xmlns="http://www.w3.org/2000/svg">
<path d="M8.125 5C7.95924 5 7.80027 5.06585 7.68306 5.18306C7.56585 5.30027 7.5 5.45924 7.5 5.625V26.875C7.5 27.2175 7.78 27.5 8.125 27.5H12.5V30H8.125C6.4 30 5 28.6 5 26.8725L5.005 5.6225C5.005 3.8975 6.405 2.4975 8.13 2.4975H19.3875C21.1125 2.4975 22.5125 3.8975 22.5125 5.6275L22.5075 10.6225C22.5075 10.9675 22.785 11.2475 23.1325 11.2475H24.375C25.1822 11.2468 25.9583 11.5585 26.5408 12.1173C27.1233 12.676 27.4671 13.4385 27.5 14.245C26.3494 13.5818 24.9825 13.4029 23.7 13.7475H23.1325C22.7214 13.7488 22.3141 13.6688 21.9341 13.5121C21.5541 13.3554 21.2088 13.1251 20.9181 12.8344C20.6274 12.5437 20.3971 12.1984 20.2404 11.8184C20.0837 11.4384 20.0037 11.0311 20.005 10.62L20.01 5.6225C20.01 5.45674 19.9441 5.29777 19.8269 5.18056C19.7097 5.06334 19.5508 4.9975 19.385 4.9975H8.125V5ZM26.7 16.7475C26.2376 16.318 25.6298 16.0794 24.9987 16.0794C24.3677 16.0794 23.7599 16.318 23.2975 16.7475L16.1975 23.34C15.8189 23.6911 15.517 24.1165 15.3105 24.5898C15.104 25.063 14.9974 25.5737 14.9975 26.09V34.9975C14.9975 35.6605 15.2609 36.2964 15.7297 36.7653C16.1986 37.2341 16.8345 37.4975 17.4975 37.4975H21.2475C21.9105 37.4975 22.5464 37.2341 23.0153 36.7653C23.4841 36.2964 23.7475 35.6605 23.7475 34.9975V32.4975H26.2475V34.9975C26.2475 35.6605 26.5109 36.2964 26.9797 36.7653C27.4486 37.2341 28.0845 37.4975 28.7475 37.4975H32.4975C33.1605 37.4975 33.7964 37.2341 34.2653 36.7653C34.7341 36.2964 34.9975 35.6605 34.9975 34.9975V26.0875C34.9972 25.5716 34.8905 25.0614 34.684 24.5886C34.4775 24.1159 34.1757 23.6908 33.7975 23.34L26.7 16.75V16.7475ZM17.8975 25.1725L24.9975 18.58L32.0975 25.1725C32.2235 25.2893 32.324 25.4309 32.3928 25.5883C32.4617 25.7458 32.4973 25.9157 32.4975 26.0875V35H28.7475V32.5C28.7475 31.837 28.4841 31.2011 28.0153 30.7322C27.5464 30.2634 26.9105 30 26.2475 30H23.7475C23.0845 30 22.4486 30.2634 21.9797 30.7322C21.5109 31.2011 21.2475 31.837 21.2475 32.5V35H17.4975V26.09C17.4977 25.9182 17.5333 25.7482 17.6022 25.5908C17.671 25.4334 17.7715 25.2918 17.8975 25.175V25.1725ZM12.4975 8.7475C12.4975 9.07902 12.3658 9.39696 12.1314 9.63138C11.897 9.8658 11.579 9.9975 11.2475 9.9975C10.916 9.9975 10.598 9.8658 10.3636 9.63138C10.1292 9.39696 9.9975 9.07902 9.9975 8.7475C9.9975 8.41598 10.1292 8.09803 10.3636 7.86361C10.598 7.62919 10.916 7.4975 11.2475 7.4975C11.579 7.4975 11.897 7.62919 12.1314 7.86361C12.3658 8.09803 12.4975 8.41598 12.4975 8.7475ZM11.2475 14.9975C11.579 14.9975 11.897 14.8658 12.1314 14.6314C12.3658 14.397 12.4975 14.079 12.4975 13.7475C12.4975 13.416 12.3658 13.098 12.1314 12.8636C11.897 12.6292 11.579 12.4975 11.2475 12.4975C10.916 12.4975 10.598 12.6292 10.3636 12.8636C10.1292 13.098 9.9975 13.416 9.9975 13.7475C9.9975 14.079 10.1292 14.397 10.3636 14.6314C10.598 14.8658 10.916 14.9975 11.2475 14.9975ZM12.4975 18.7475C12.4975 19.079 12.3658 19.397 12.1314 19.6314C11.897 19.8658 11.579 19.9975 11.2475 19.9975C10.916 19.9975 10.598 19.8658 10.3636 19.6314C10.1292 19.397 9.9975 19.079 9.9975 18.7475C9.9975 18.416 10.1292 18.098 10.3636 17.8636C10.598 17.6292 10.916 17.4975 11.2475 17.4975C11.579 17.4975 11.897 17.6292 12.1314 17.8636C12.3658 18.098 12.4975 18.416 12.4975 18.7475ZM16.2475 9.9975C16.579 9.9975 16.897 9.8658 17.1314 9.63138C17.3658 9.39696 17.4975 9.07902 17.4975 8.7475C17.4975 8.41598 17.3658 8.09803 17.1314 7.86361C16.897 7.62919 16.579 7.4975 16.2475 7.4975C15.916 7.4975 15.598 7.62919 15.3636 7.86361C15.1292 8.09803 14.9975 8.41598 14.9975 8.7475C14.9975 9.07902 15.1292 9.39696 15.3636 9.63138C15.598 9.8658 15.916 9.9975 16.2475 9.9975ZM17.4975 13.7475C17.4975 14.079 17.3658 14.397 17.1314 14.6314C16.897 14.8658 16.579 14.9975 16.2475 14.9975C15.916 14.9975 15.598 14.8658 15.3636 14.6314C15.1292 14.397 14.9975 14.079 14.9975 13.7475C14.9975 13.416 15.1292 13.098 15.3636 12.8636C15.598 12.6292 15.916 12.4975 16.2475 12.4975C16.579 12.4975 16.897 12.6292 17.1314 12.8636C17.3658 13.098 17.4975 13.416 17.4975 13.7475ZM16.2475 19.9975C16.579 19.9975 16.897 19.8658 17.1314 19.6314C17.3658 19.397 17.4975 19.079 17.4975 18.7475C17.4975 18.416 17.3658 18.098 17.1314 17.8636C16.897 17.6292 16.579 17.4975 16.2475 17.4975C15.916 17.4975 15.598 17.6292 15.3636 17.8636C15.1292 18.098 14.9975 18.416 14.9975 18.7475C14.9975 19.079 15.1292 19.397 15.3636 19.6314C15.598 19.8658 15.916 19.9975 16.2475 19.9975Z" fill="#F58604"/>
</svg>
