<svg width="188" height="263" viewBox="0 0 188 263" fill="none" xmlns="http://www.w3.org/2000/svg">
<g filter="url(#filter0_dd_136_2)">
<rect x="8" y="72.2083" width="120" height="120" rx="12" transform="rotate(-36.7608 8 72.2083)" fill="url(#paint0_linear_136_2)"/>
</g>
<path d="M110.555 100.695H106.648V96.789C106.648 96.5742 106.473 96.3984 106.258 96.3984H103.914C103.699 96.3984 103.523 96.5742 103.523 96.789V100.695H99.6172C99.4024 100.695 99.2266 100.871 99.2266 101.086V103.43C99.2266 103.644 99.4024 103.82 99.6172 103.82H103.523V107.727C103.523 107.941 103.699 108.117 103.914 108.117H106.258C106.473 108.117 106.648 107.941 106.648 107.727V103.82H110.555C110.77 103.82 110.945 103.644 110.945 103.43V101.086C110.945 100.871 110.77 100.695 110.555 100.695ZM85.2373 87.3359C85.1934 86.9111 85.169 86.4814 85.169 86.0468C85.169 85.2705 85.2422 84.5136 85.3789 83.7763C85.4131 83.6006 85.3203 83.4199 85.1592 83.3467C84.4951 83.0488 83.8848 82.6386 83.3574 82.1211C82.736 81.5186 82.2471 80.7931 81.9217 79.9911C81.5964 79.1891 81.4418 78.328 81.4678 77.4629C81.5117 75.8955 82.1416 74.4062 83.2402 73.2832C84.4463 72.0478 86.0674 71.374 87.791 71.3935C89.3486 71.4082 90.8526 72.0088 91.9902 73.0732C92.376 73.4346 92.708 73.8349 92.9863 74.2646C93.084 74.416 93.2744 74.4795 93.4404 74.4209C94.2998 74.123 95.208 73.9131 96.1406 73.8154C96.4141 73.7861 96.5703 73.4931 96.4483 73.249C94.8613 70.1094 91.6192 67.9414 87.8692 67.8828C82.459 67.7998 77.9473 72.2383 77.9473 77.6484C77.9473 80.7148 79.3584 83.4492 81.5703 85.2412C80.0176 85.959 78.5869 86.9502 77.3467 88.1904C74.6709 90.8613 73.1572 94.3867 73.0596 98.1513C73.0583 98.2034 73.0674 98.2553 73.0865 98.3038C73.1055 98.3523 73.1341 98.3966 73.1705 98.4339C73.2069 98.4712 73.2504 98.5008 73.2984 98.5211C73.3465 98.5413 73.3981 98.5517 73.4502 98.5517H76.1895C76.3994 98.5517 76.5752 98.3857 76.5801 98.1757C76.6729 95.3437 77.8203 92.6924 79.8369 90.6806C81.2725 89.2451 83.0303 88.249 84.9492 87.7656C85.1348 87.7119 85.2617 87.5312 85.2373 87.3359ZM107.234 86.0468C107.234 80.7051 102.942 76.3642 97.6201 76.2812C92.21 76.1982 87.7031 80.6367 87.7031 86.0468C87.7031 89.1132 89.1192 91.8476 91.3262 93.6396C89.7574 94.3668 88.3292 95.3652 87.1074 96.5888C84.4316 99.2597 82.918 102.785 82.8203 106.545C82.819 106.597 82.8282 106.649 82.8472 106.697C82.8663 106.746 82.8948 106.79 82.9312 106.827C82.9676 106.865 83.0111 106.894 83.0592 106.915C83.1072 106.935 83.1588 106.945 83.2109 106.945H85.9453C86.1553 106.945 86.3311 106.779 86.3359 106.569C86.4287 103.737 87.5762 101.086 89.5928 99.0742C91.6973 96.9697 94.4902 95.8125 97.4688 95.8125C102.859 95.8125 107.234 91.4423 107.234 86.0468ZM101.888 90.4658C100.706 91.6474 99.1387 92.2968 97.4688 92.2968C95.7988 92.2968 94.2315 91.6474 93.0498 90.4658C92.4602 89.8792 91.9943 89.1802 91.6797 88.4103C91.3652 87.6403 91.2084 86.815 91.2188 85.9834C91.2334 84.3818 91.8731 82.834 92.9912 81.6865C94.1631 80.4853 95.7305 79.8164 97.4053 79.7969C99.0606 79.7822 100.667 80.4267 101.849 81.584C103.06 82.7705 103.724 84.3574 103.724 86.0468C103.719 87.7168 103.069 89.2841 101.888 90.4658Z" fill="#D62ADA"/>
<defs>
<filter id="filter0_dd_136_2" x="0.794678" y="5.18579" width="186.365" height="257.365" filterUnits="userSpaceOnUse" color-interpolation-filters="sRGB">
<feFlood flood-opacity="0" result="BackgroundImageFix"/>
<feColorMatrix in="SourceAlpha" type="matrix" values="0 0 0 0 0 0 0 0 0 0 0 0 0 0 0 0 0 0 127 0" result="hardAlpha"/>
<feMorphology radius="20" operator="erode" in="SourceAlpha" result="effect1_dropShadow_136_2"/>
<feOffset dx="2" dy="85"/>
<feGaussianBlur stdDeviation="17"/>
<feComposite in2="hardAlpha" operator="out"/>
<feColorMatrix type="matrix" values="0 0 0 0 0.980667 0 0 0 0 0.0333334 0 0 0 0 1 0 0 0 0.25 0"/>
<feBlend mode="normal" in2="BackgroundImageFix" result="effect1_dropShadow_136_2"/>
<feColorMatrix in="SourceAlpha" type="matrix" values="0 0 0 0 0 0 0 0 0 0 0 0 0 0 0 0 0 0 127 0" result="hardAlpha"/>
<feOffset dy="12"/>
<feComposite in2="hardAlpha" operator="out"/>
<feColorMatrix type="matrix" values="0 0 0 0 0.980667 0 0 0 0 0.0333334 0 0 0 0 1 0 0 0 0.25 0"/>
<feBlend mode="normal" in2="effect1_dropShadow_136_2" result="effect2_dropShadow_136_2"/>
<feBlend mode="normal" in="SourceGraphic" in2="effect2_dropShadow_136_2" result="shape"/>
</filter>
<linearGradient id="paint0_linear_136_2" x1="68" y1="72.2083" x2="68" y2="192.208" gradientUnits="userSpaceOnUse">
<stop stop-color="#FAFAFA"/>
<stop offset="1" stop-color="#FDA9FF"/>
</linearGradient>
</defs>
</svg>
