<svg width="189" height="264" viewBox="0 0 189 264" fill="none" xmlns="http://www.w3.org/2000/svg">
<g filter="url(#filter0_dd_136_5)">
<rect x="8" y="85" width="120" height="120" rx="12" transform="rotate(-45 8 85)" fill="url(#paint0_linear_136_5)"/>
</g>
<path d="M86.5208 101.323C88.0977 102.23 89.9697 102.475 91.7269 102.004C93.4841 101.534 94.9832 100.386 95.8958 98.8125L104.604 83.75C104.851 83.3233 105.011 82.8522 105.075 82.3636C105.139 81.875 105.107 81.3785 104.979 80.9025C104.851 80.4266 104.631 79.9804 104.331 79.5896C104.03 79.1988 103.656 78.8711 103.229 78.625L100.625 77.125L86.5208 101.323ZM86.1771 101.125C84.7444 100.295 83.6995 98.9308 83.2718 97.3313C82.8441 95.7318 83.0685 94.0279 83.8958 92.5938L90.4896 81.1354C90.9841 80.2746 91.1171 79.2527 90.8593 78.2939C90.6016 77.3351 89.9741 76.5177 89.1146 76.0209L84.3229 73.2604C83.8979 73.0124 83.4281 72.8508 82.9404 72.7852C82.4528 72.7195 81.9569 72.751 81.4815 72.8779C81.0061 73.0047 80.5604 73.2244 80.1703 73.5243C79.7802 73.8241 79.4532 74.1982 79.2083 74.625L73.8646 83.9584C72.7162 85.9611 72.408 88.3371 73.0074 90.5666C73.6067 92.796 75.0648 94.6972 77.0625 95.8542L80.7708 98L86.1771 101.125Z" stroke="#3E6205" stroke-linecap="round" stroke-linejoin="round"/>
<path d="M86.9271 74.7917L88.4688 72.125C89.6299 70.1174 91.5405 68.6529 93.7809 68.0532C96.0212 67.4536 98.408 67.7679 100.417 68.9271L104.125 71.0729L109.531 74.1979C108.096 73.3715 106.391 73.1486 104.791 73.5783C103.192 74.008 101.828 75.0551 101 76.4896L91.9584 92.0833C91.4615 92.9429 90.6441 93.5704 89.6853 93.8281C88.7265 94.0859 87.7047 93.9529 86.8438 93.4583L84.2292 91.9479M109.875 74.3958C110.657 74.8449 111.343 75.4439 111.893 76.1585C112.443 76.8731 112.847 77.6892 113.081 78.5601C113.315 79.4311 113.375 80.3396 113.258 81.2338C113.14 82.128 112.847 82.9901 112.396 83.7708L106.25 94.375C105.751 95.2353 104.932 95.8629 103.971 96.1206C103.011 96.3783 101.987 96.2451 101.125 95.75L98.5209 94.2396L109.875 74.3958Z" stroke="#3E6205" stroke-linecap="round" stroke-linejoin="round"/>
<defs>
<filter id="filter0_dd_136_5" x="0.970551" y="5.11774" width="187.764" height="258.765" filterUnits="userSpaceOnUse" color-interpolation-filters="sRGB">
<feFlood flood-opacity="0" result="BackgroundImageFix"/>
<feColorMatrix in="SourceAlpha" type="matrix" values="0 0 0 0 0 0 0 0 0 0 0 0 0 0 0 0 0 0 127 0" result="hardAlpha"/>
<feMorphology radius="20" operator="erode" in="SourceAlpha" result="effect1_dropShadow_136_5"/>
<feOffset dx="2" dy="85"/>
<feGaussianBlur stdDeviation="17"/>
<feComposite in2="hardAlpha" operator="out"/>
<feColorMatrix type="matrix" values="0 0 0 0 0.264314 0 0 0 0 0.803922 0 0 0 0 0.176471 0 0 0 0.5 0"/>
<feBlend mode="normal" in2="BackgroundImageFix" result="effect1_dropShadow_136_5"/>
<feColorMatrix in="SourceAlpha" type="matrix" values="0 0 0 0 0 0 0 0 0 0 0 0 0 0 0 0 0 0 127 0" result="hardAlpha"/>
<feOffset dy="12"/>
<feComposite in2="hardAlpha" operator="out"/>
<feColorMatrix type="matrix" values="0 0 0 0 0.560784 0 0 0 0 0.803922 0 0 0 0 0.176471 0 0 0 1 0"/>
<feBlend mode="normal" in2="effect1_dropShadow_136_5" result="effect2_dropShadow_136_5"/>
<feBlend mode="normal" in="SourceGraphic" in2="effect2_dropShadow_136_5" result="shape"/>
</filter>
<linearGradient id="paint0_linear_136_5" x1="68" y1="85" x2="68" y2="205" gradientUnits="userSpaceOnUse">
<stop stop-color="#FAFAFA"/>
<stop offset="1" stop-color="#9AE103"/>
</linearGradient>
</defs>
</svg>
