<svg width="189" height="264" viewBox="0 0 189 264" fill="none" xmlns="http://www.w3.org/2000/svg">
<g filter="url(#filter0_dd_136_3)">
<rect x="8" y="85" width="120" height="120" rx="12" transform="rotate(-45 8 85)" fill="url(#paint0_linear_136_3)"/>
</g>
<path d="M82.5833 74.5833C82.5833 72.9257 83.2418 71.336 84.4139 70.1639C85.586 68.9918 87.1757 68.3333 88.8333 68.3333H98.2083C99.8659 68.3333 101.456 68.9918 102.628 70.1639C103.8 71.336 104.458 72.9257 104.458 74.5833V76.6666H82.5833V74.5833ZM72.1667 86.0416L92.4948 91.1239C92.826 91.2073 93.174 91.2073 93.5052 91.1239L113.833 86.0416V99.5833C113.833 100.136 113.614 100.666 113.223 101.056C112.832 101.447 112.303 101.667 111.75 101.667H74.25C73.6975 101.667 73.1676 101.447 72.7769 101.056C72.3862 100.666 72.1667 100.136 72.1667 99.5833V86.0416Z" stroke="#5A57FF" stroke-width="4" stroke-linecap="round" stroke-linejoin="round"/>
<path d="M113.833 88.125V78.75C113.833 78.1974 113.614 77.6675 113.223 77.2768C112.832 76.8861 112.303 76.6666 111.75 76.6666H74.25C73.6975 76.6666 73.1676 76.8861 72.7769 77.2768C72.3862 77.6675 72.1667 78.1974 72.1667 78.75V88.125" stroke="#5A57FF" stroke-width="4" stroke-linecap="round" stroke-linejoin="round"/>
<path d="M95.6042 83.9583C95.6042 84.649 95.3298 85.3113 94.8414 85.7997C94.3531 86.2881 93.6907 86.5625 93 86.5625C92.3093 86.5625 91.647 86.2881 91.1586 85.7997C90.6702 85.3113 90.3958 84.649 90.3958 83.9583C90.3958 83.2676 90.6702 82.6052 91.1586 82.1169C91.647 81.6285 92.3093 81.3541 93 81.3541C93.6907 81.3541 94.3531 81.6285 94.8414 82.1169C95.3298 82.6052 95.6042 83.2676 95.6042 83.9583Z" fill="#5A57FF"/>
<defs>
<filter id="filter0_dd_136_3" x="0.970551" y="5.11774" width="187.765" height="258.765" filterUnits="userSpaceOnUse" color-interpolation-filters="sRGB">
<feFlood flood-opacity="0" result="BackgroundImageFix"/>
<feColorMatrix in="SourceAlpha" type="matrix" values="0 0 0 0 0 0 0 0 0 0 0 0 0 0 0 0 0 0 127 0" result="hardAlpha"/>
<feMorphology radius="20" operator="erode" in="SourceAlpha" result="effect1_dropShadow_136_3"/>
<feOffset dx="2" dy="85"/>
<feGaussianBlur stdDeviation="17"/>
<feComposite in2="hardAlpha" operator="out"/>
<feColorMatrix type="matrix" values="0 0 0 0 0.0526667 0 0 0 0 0.0333334 0 0 0 0 1 0 0 0 0.25 0"/>
<feBlend mode="normal" in2="BackgroundImageFix" result="effect1_dropShadow_136_3"/>
<feColorMatrix in="SourceAlpha" type="matrix" values="0 0 0 0 0 0 0 0 0 0 0 0 0 0 0 0 0 0 127 0" result="hardAlpha"/>
<feOffset dy="12"/>
<feComposite in2="hardAlpha" operator="out"/>
<feColorMatrix type="matrix" values="0 0 0 0 0.580001 0 0 0 0 0.573118 0 0 0 0 0.979167 0 0 0 1 0"/>
<feBlend mode="normal" in2="effect1_dropShadow_136_3" result="effect2_dropShadow_136_3"/>
<feBlend mode="normal" in="SourceGraphic" in2="effect2_dropShadow_136_3" result="shape"/>
</filter>
<linearGradient id="paint0_linear_136_3" x1="68" y1="85" x2="68" y2="205" gradientUnits="userSpaceOnUse">
<stop stop-color="#FAFAFA"/>
<stop offset="1" stop-color="#ABA9FF"/>
</linearGradient>
</defs>
</svg>
