<svg width="24" height="24" viewBox="0 0 24 24" fill="none" xmlns="http://www.w3.org/2000/svg">
<path d="M19.5 6H16V5C15.9992 4.46981 15.7882 3.96156 15.4133 3.58666C15.0384 3.21176 14.5302 3.00079 14 3H10C9.46981 3.00079 8.96156 3.21176 8.58666 3.58666C8.21176 3.96156 8.00079 4.46981 8 5V6H4.5C3.83712 6.00053 3.20154 6.26409 2.73282 6.73282C2.26409 7.20154 2.00053 7.83712 2 8.5V18.5C2.00053 19.1629 2.26409 19.7985 2.73282 20.2672C3.20154 20.7359 3.83712 20.9995 4.5 21H19.5C20.1629 20.9995 20.7985 20.7359 21.2672 20.2672C21.7359 19.7985 21.9995 19.1629 22 18.5V8.5C21.9995 7.83712 21.7359 7.20154 21.2672 6.73282C20.7985 6.26409 20.1629 6.00053 19.5 6ZM9 5C9 4.73478 9.10536 4.48043 9.29289 4.29289C9.48043 4.10536 9.73478 4 10 4H14C14.2652 4 14.5196 4.10536 14.7071 4.29289C14.8946 4.48043 15 4.73478 15 5V6H9V5ZM21 18.5C21 18.8978 20.842 19.2794 20.5607 19.5607C20.2794 19.842 19.8978 20 19.5 20H4.5C4.10218 20 3.72064 19.842 3.43934 19.5607C3.15804 19.2794 3 18.8978 3 18.5V12.027L8.842 13.975C8.89302 13.9916 8.94635 14 9 14H15C15.0537 14 15.107 13.9916 15.158 13.975L21 12.027V18.5ZM21 11.006C20.9466 11.004 20.8932 11.0108 20.842 11.026L14.919 13H9.081L3.158 11.025C3.10678 11.0098 3.0534 11.003 3 11.005V8.5C3 8.10218 3.15804 7.72064 3.43934 7.43934C3.72064 7.15804 4.10218 7 4.5 7H19.5C19.8978 7 20.2794 7.15804 20.5607 7.43934C20.842 7.72064 21 8.10218 21 8.5V11.006Z" fill="white"/>
</svg>
