<svg width="24" height="21" viewBox="0 0 24 21" fill="none" xmlns="http://www.w3.org/2000/svg">
<path d="M15.3 9.64242C15.0614 9.64242 14.8324 9.56011 14.6637 9.41359C14.4949 9.26708 14.4 9.06837 14.4 8.86117C14.4 8.65397 14.4949 8.45525 14.6637 8.30874C14.8324 8.16223 15.0614 8.07992 15.3 8.07992C15.5387 8.07992 15.7677 8.16223 15.9364 8.30874C16.1052 8.45525 16.2 8.65397 16.2 8.86117C16.2 9.06837 16.1052 9.26708 15.9364 9.41359C15.7677 9.56011 15.5387 9.64242 15.3 9.64242ZM15.3 12.7674C15.0614 12.7674 14.8324 12.6851 14.6637 12.5386C14.4949 12.3921 14.4 12.1934 14.4 11.9862C14.4 11.779 14.4949 11.5803 14.6637 11.4337C14.8324 11.2872 15.0614 11.2049 15.3 11.2049C15.5387 11.2049 15.7677 11.2872 15.9364 11.4337C16.1052 11.5803 16.2 11.779 16.2 11.9862C16.2 12.1934 16.1052 12.3921 15.9364 12.5386C15.7677 12.6851 15.5387 12.7674 15.3 12.7674ZM14.4 15.1112C14.4 15.3184 14.4949 15.5171 14.6637 15.6636C14.8324 15.8101 15.0614 15.8924 15.3 15.8924C15.5387 15.8924 15.7677 15.8101 15.9364 15.6636C16.1052 15.5171 16.2 15.3184 16.2 15.1112C16.2 14.904 16.1052 14.7053 15.9364 14.5587C15.7677 14.4122 15.5387 14.3299 15.3 14.3299C15.0614 14.3299 14.8324 14.4122 14.6637 14.5587C14.4949 14.7053 14.4 14.904 14.4 15.1112ZM13.2 8.86117C13.2 8.72303 13.1368 8.59056 13.0243 8.49288C12.9118 8.39521 12.7592 8.34033 12.6 8.34033H8.40005C8.24092 8.34033 8.08831 8.39521 7.97578 8.49288C7.86326 8.59056 7.80005 8.72303 7.80005 8.86117C7.80005 8.9993 7.86326 9.13178 7.97578 9.22945C8.08831 9.32713 8.24092 9.382 8.40005 9.382H12.6C12.7592 9.382 12.9118 9.32713 13.0243 9.22945C13.1368 9.13178 13.2 8.9993 13.2 8.86117ZM13.2 11.9862C13.2 11.848 13.1368 11.7156 13.0243 11.6179C12.9118 11.5202 12.7592 11.4653 12.6 11.4653H8.40005C8.24092 11.4653 8.08831 11.5202 7.97578 11.6179C7.86326 11.7156 7.80005 11.848 7.80005 11.9862C7.80005 12.1243 7.86326 12.2568 7.97578 12.3545C8.08831 12.4521 8.24092 12.507 8.40005 12.507H12.6C12.7592 12.507 12.9118 12.4521 13.0243 12.3545C13.1368 12.2568 13.2 12.1243 13.2 11.9862ZM13.2 15.1112C13.2 14.973 13.1368 14.8406 13.0243 14.7429C12.9118 14.6452 12.7592 14.5903 12.6 14.5903H8.40005C8.24092 14.5903 8.08831 14.6452 7.97578 14.7429C7.86326 14.8406 7.80005 14.973 7.80005 15.1112C7.80005 15.2493 7.86326 15.3818 7.97578 15.4795C8.08831 15.5771 8.24092 15.632 8.40005 15.632H12.6C12.7592 15.632 12.9118 15.5771 13.0243 15.4795C13.1368 15.3818 13.2 15.2493 13.2 15.1112ZM10.2 2.09033C9.82766 2.09016 9.46437 2.19026 9.16026 2.37682C8.85615 2.56338 8.62618 2.82723 8.50205 3.132H6.60005C6.12266 3.132 5.66482 3.29662 5.32726 3.58964C4.98969 3.88267 4.80005 4.2801 4.80005 4.6945V17.1945C4.80005 17.6089 4.98969 18.0063 5.32726 18.2994C5.66482 18.5924 6.12266 18.757 6.60005 18.757H17.4C17.8774 18.757 18.3353 18.5924 18.6728 18.2994C19.0104 18.0063 19.2 17.6089 19.2 17.1945V4.6945C19.2 4.2801 19.0104 3.88267 18.6728 3.58964C18.3353 3.29662 17.8774 3.132 17.4 3.132H15.498C15.3739 2.82723 15.1439 2.56338 14.8398 2.37682C14.5357 2.19026 14.1724 2.09016 13.8 2.09033H10.2ZM9.60005 3.65283C9.60005 3.5147 9.66326 3.38222 9.77578 3.28455C9.88831 3.18687 10.0409 3.132 10.2 3.132H13.8C13.9592 3.132 14.1118 3.18687 14.2243 3.28455C14.3368 3.38222 14.4 3.5147 14.4 3.65283C14.4 3.79097 14.3368 3.92344 14.2243 4.02112C14.1118 4.11879 13.9592 4.17367 13.8 4.17367H10.2C10.0409 4.17367 9.88831 4.11879 9.77578 4.02112C9.66326 3.92344 9.60005 3.79097 9.60005 3.65283ZM6.60005 4.17367H8.50205C8.62618 4.47844 8.85615 4.74228 9.16026 4.92885C9.46437 5.11541 9.82766 5.2155 10.2 5.21533H13.8C14.1724 5.2155 14.5357 5.11541 14.8398 4.92885C15.1439 4.74228 15.3739 4.47844 15.498 4.17367H17.4C17.5592 4.17367 17.7118 4.22854 17.8243 4.32621C17.9368 4.42389 18 4.55637 18 4.6945V17.1945C18 17.3326 17.9368 17.4651 17.8243 17.5628C17.7118 17.6605 17.5592 17.7153 17.4 17.7153H6.60005C6.44092 17.7153 6.28831 17.6605 6.17578 17.5628C6.06326 17.4651 6.00005 17.3326 6.00005 17.1945V4.6945C6.00005 4.55637 6.06326 4.42389 6.17578 4.32621C6.28831 4.22854 6.44092 4.17367 6.60005 4.17367Z" fill="#737373"/>
</svg>
