<svg width="52" height="52" viewBox="0 0 52 52" fill="none" xmlns="http://www.w3.org/2000/svg">
<path d="M26 1.04004C12.2148 1.04004 1.04 12.2148 1.04 26C1.04 39.7852 12.2148 50.96 26 50.96C39.7852 50.96 50.96 39.7852 50.96 26C50.96 12.2148 39.7852 1.04004 26 1.04004ZM19.89 36.3454H14.8356V20.0798H19.89V36.3454ZM17.3316 18.083C15.7352 18.083 14.703 16.952 14.703 15.5532C14.703 14.1258 15.7664 13.0286 17.3966 13.0286C19.0268 13.0286 20.0252 14.1258 20.0564 15.5532C20.0564 16.952 19.0268 18.083 17.3316 18.083ZM38.35 36.3454H33.2956V27.3312C33.2956 25.233 32.5624 23.8082 30.7346 23.8082C29.3384 23.8082 28.509 24.7728 28.1424 25.701C28.0072 26.0312 27.9734 26.4992 27.9734 26.9646V36.3428H22.9164V25.2668C22.9164 23.2362 22.8514 21.5384 22.7838 20.0772H27.1752L27.4066 22.3366H27.508C28.1736 21.2758 29.8038 19.7106 32.5312 19.7106C35.8566 19.7106 38.35 21.9388 38.35 26.728V36.3454Z" fill="white"/>
</svg>
