<svg width="60" height="60" viewBox="0 0 60 60" fill="none" xmlns="http://www.w3.org/2000/svg">
<path d="M55.1175 42.8522L45.2006 6.90844C44.9269 5.91359 44.3682 5.02052 43.5933 4.33922C42.8184 3.65792 41.8611 3.21815 40.8394 3.07407C42.0092 3.72513 42.8869 4.79762 43.2938 6.07313L54.6431 41.5781C55.5413 44.3888 53.9906 47.4225 51.1781 48.3534L25.006 57.0066L51.3834 49.4794C54.2325 48.6675 55.905 45.6994 55.1175 42.8522Z" fill="white"/>
<path d="M54.1913 40.4569L41.6372 5.37938C41.2712 4.35285 40.5963 3.46484 39.7053 2.83735C38.8142 2.20986 37.7508 1.87368 36.6609 1.875C36.045 1.875 35.4169 1.98282 34.8028 2.20969L7.12594 12.4547C4.34625 13.4841 4.27687 15.1116 5.27062 17.8894L18.7256 55.485C19.7222 58.2647 20.5031 58.6275 23.2809 57.5981L50.9597 47.3531C53.7384 46.3238 55.185 43.2366 54.1913 40.4569ZM26.4656 54.5494L11.4909 12.7097L35.3934 3.86157C35.7993 3.71073 36.2288 3.63327 36.6619 3.63282C37.3941 3.63186 38.1089 3.85677 38.7087 4.27687C39.3084 4.69696 39.7641 5.29181 40.0134 5.98032L52.5675 41.0597C53.235 42.9234 52.2478 45.0056 50.37 45.7013L26.4656 54.5494Z" fill="white"/>
<path d="M37.7241 13.9303L37.4241 13.1044L36.6 13.4044L21.5672 18.8869L20.7431 19.1869L21.0413 20.0128L23.1759 25.8872L23.4741 26.7131L24.2981 26.4131L39.3347 20.9287L40.1588 20.6287L39.8588 19.8028L37.7241 13.9303ZM24.0009 25.5872L21.8681 19.7128L36.8991 14.2303L39.0356 20.1028L24.0009 25.5872Z" fill="white"/>
</svg>
