<svg width="40" height="40" viewBox="0 0 40 40" fill="none" xmlns="http://www.w3.org/2000/svg">
<path d="M22.0833 3.33334H27.3917C28.24 3.33334 29.07 3.56834 29.7917 4.01334L34.405 6.85167C34.5869 6.96358 34.7371 7.12022 34.8412 7.30666C34.9454 7.49309 35.0001 7.70311 35 7.91667V10.4167C35 11.4112 34.6049 12.3651 33.9016 13.0683C33.1984 13.7716 32.2446 14.1667 31.25 14.1667H30.8333V29.245C32.495 29.4683 33.6583 30.17 34.325 31.37C34.6967 32.0417 34.855 32.77 34.9283 33.4417C35 34.0933 35 34.775 35 35.375V35.4167C35 35.7482 34.8683 36.0661 34.6339 36.3006C34.3995 36.535 34.0815 36.6667 33.75 36.6667H9.72166C8.3232 36.6679 6.96297 36.2102 5.84972 35.3638C4.73646 34.5174 3.9317 33.3291 3.55892 31.9812C3.18614 30.6334 3.26595 29.2004 3.78609 27.9023C4.30624 26.6041 5.23798 25.5125 6.43833 24.795C6.72277 24.6244 7.06335 24.5737 7.38513 24.6542C7.70691 24.7347 7.98354 24.9397 8.15416 25.2242C8.32479 25.5086 8.37543 25.8492 8.29494 26.171C8.21446 26.4928 8.00944 26.7694 7.725 26.94C6.99411 27.3765 6.42667 28.0408 6.10977 28.8309C5.79287 29.621 5.74403 30.4933 5.97074 31.3139C6.19745 32.1344 6.68719 32.8579 7.36478 33.3732C8.04237 33.8886 8.87036 34.1673 9.72166 34.1667C10.2533 34.1667 10.5833 34.0283 10.8033 33.8733C11.035 33.71 11.2167 33.4767 11.355 33.195C11.5297 32.8345 11.6354 32.4444 11.6667 32.045V31.9867L11.6733 31.7483C11.7232 30.524 11.8681 29.3053 12.1067 28.1033C12.54 25.9517 13.435 23.1567 15.36 21.205C16.7733 19.7717 17.5417 17.6733 17.9383 15.5983C18.3333 13.55 18.3333 11.68 18.3333 10.8333V7.08334C18.3333 6.08877 18.7284 5.13495 19.4317 4.43169C20.1349 3.72842 21.0888 3.33334 22.0833 3.33334ZM12.9167 32.0833L14.1667 32.1267V32.1367L14.165 32.1533L14.1617 32.2C14.1457 32.4125 14.1179 32.624 14.0783 32.8333C14.0133 33.1883 13.8917 33.6667 13.6617 34.1667H25.745C25.595 33.3433 25.1783 32.49 24.0567 31.9667C23.8009 31.8551 23.5303 31.781 23.2533 31.7467C22.8662 31.6869 22.4751 31.6562 22.0833 31.655L21.6117 31.6617L21.3767 31.665H21.2767C21.1094 31.6734 20.9422 31.6481 20.7849 31.5906C20.6276 31.5331 20.4835 31.4446 20.3611 31.3303C20.2387 31.216 20.1405 31.0783 20.0724 30.9254C20.0042 30.7724 19.9675 30.6073 19.9643 30.4399C19.9612 30.2725 19.9918 30.1061 20.0542 29.9508C20.1166 29.7954 20.2095 29.6541 20.3276 29.5353C20.4457 29.4166 20.5864 29.3227 20.7414 29.2594C20.8964 29.1961 21.0626 29.1645 21.23 29.1667L21.3333 29.165L21.5717 29.1617L22.0833 29.155C22.475 29.155 22.9083 29.1817 23.3333 29.2333V25.4217C23.3333 25.0902 23.465 24.7722 23.6994 24.5378C23.9339 24.3034 24.2518 24.1717 24.5833 24.1717C24.9149 24.1717 25.2328 24.3034 25.4672 24.5378C25.7016 24.7722 25.8333 25.0902 25.8333 25.4217V30.095C27.6083 31.2317 28.1233 32.9333 28.2717 34.1667H32.4783C32.4708 34.0164 32.4591 33.8663 32.4433 33.7167C32.3883 33.215 32.2867 32.85 32.1383 32.5833C31.9217 32.1933 31.4167 31.6667 29.5833 31.6667C29.2518 31.6667 28.9339 31.535 28.6994 31.3006C28.465 31.0661 28.3333 30.7482 28.3333 30.4167V12.9167C28.3333 12.5851 28.465 12.2672 28.6994 12.0328C28.9339 11.7984 29.2518 11.6667 29.5833 11.6667H31.25C31.5815 11.6667 31.8995 11.535 32.1339 11.3006C32.3683 11.0661 32.5 10.7482 32.5 10.4167V8.61667L28.4817 6.14167C28.1539 5.93995 27.7765 5.83321 27.3917 5.83334H22.0817C21.7504 5.83378 21.4329 5.96567 21.1989 6.20004C20.9648 6.43441 20.8333 6.7521 20.8333 7.08334V10.8033C20.8429 11.1403 20.9629 11.4647 21.175 11.7267C21.3433 11.9167 21.6083 12.0833 22.0833 12.0833C22.5617 12.0833 22.8383 11.915 23.01 11.7183C23.23 11.4446 23.3447 11.101 23.3333 10.75C23.3333 10.4185 23.465 10.1005 23.6994 9.86612C23.9339 9.6317 24.2518 9.5 24.5833 9.5C24.9149 9.5 25.2328 9.6317 25.4672 9.86612C25.7016 10.1005 25.8333 10.4185 25.8333 10.75C25.8333 11.6733 25.5383 12.625 24.89 13.365C24.2233 14.1267 23.25 14.5833 22.0833 14.5833C21.5965 14.5875 21.1131 14.5004 20.6583 14.3267C20.5926 14.9103 20.5048 15.4913 20.395 16.0683C19.9583 18.345 19.06 21.015 17.14 22.9617C15.7317 24.3883 14.96 26.595 14.5583 28.595C14.3344 29.7269 14.2034 30.8751 14.1667 32.0283V32.1267L12.9167 32.0833ZM27.0833 36.6667V35.4167V36.6667Z" fill="#F0420B"/>
</svg>
