<svg width="24" height="24" viewBox="0 0 24 24" fill="none" xmlns="http://www.w3.org/2000/svg">
<g clip-path="url(#clip0_98_38)">
<path d="M18.9674 14.8671C18.4761 14.3555 17.8835 14.082 17.2554 14.082C16.6323 14.082 16.0346 14.3505 15.523 14.8621L13.9223 16.4577C13.7906 16.3868 13.6589 16.3209 13.5323 16.2551C13.35 16.1639 13.1777 16.0778 13.0308 15.9866C11.5315 15.0343 10.1689 13.7933 8.86204 12.1876C8.22887 11.3872 7.80338 10.7135 7.49439 10.0297C7.90975 9.64982 8.29472 9.25472 8.66956 8.87482C8.81139 8.73299 8.95322 8.5861 9.09505 8.44427C10.1588 7.38054 10.1588 6.00276 9.09505 4.93903L7.7122 3.55619C7.55518 3.39916 7.39309 3.23707 7.24112 3.07498C6.9372 2.76093 6.61808 2.43674 6.28884 2.13282C5.7975 1.64655 5.20991 1.38821 4.59194 1.38821C3.97397 1.38821 3.37625 1.64655 2.86972 2.13282C2.86465 2.13789 2.86465 2.13789 2.85959 2.14295L1.13736 3.88037C0.488995 4.52874 0.119223 5.31894 0.0381772 6.23577C-0.0833915 7.71485 0.35223 9.09263 0.686544 9.99427C1.50713 12.2078 2.73295 14.2593 4.56155 16.4577C6.78018 19.1069 9.44962 21.1989 12.499 22.6729C13.664 23.225 15.2191 23.8784 16.9565 23.9899C17.0629 23.9949 17.1743 24 17.2756 24C18.4457 24 19.4284 23.5796 20.1983 22.7438C20.2034 22.7337 20.2135 22.7286 20.2186 22.7185C20.482 22.3993 20.7859 22.1106 21.105 21.8016C21.3228 21.594 21.5457 21.3761 21.7635 21.1482C22.265 20.6265 22.5284 20.0186 22.5284 19.3956C22.5284 18.7675 22.2599 18.1647 21.7483 17.6582L18.9674 14.8671ZM20.7808 20.201C20.7758 20.201 20.7758 20.206 20.7808 20.201C20.5833 20.4137 20.3807 20.6062 20.1629 20.819C19.8336 21.133 19.4993 21.4623 19.1853 21.832C18.6737 22.3791 18.0709 22.6374 17.2807 22.6374C17.2047 22.6374 17.1236 22.6374 17.0477 22.6324C15.5433 22.5361 14.1452 21.9485 13.0967 21.4471C10.2297 20.0591 7.7122 18.0887 5.62021 15.5915C3.89292 13.5096 2.73802 11.5848 1.97315 9.51812C1.50207 8.25685 1.32985 7.27417 1.40583 6.34721C1.45648 5.75456 1.68442 5.26322 2.10485 4.84279L3.83213 3.1155C4.08034 2.8825 4.34374 2.75586 4.60207 2.75586C4.92119 2.75586 5.17952 2.94835 5.34161 3.11044C5.34668 3.1155 5.35174 3.12057 5.35681 3.12563C5.6658 3.41436 5.95959 3.71322 6.26857 4.03233C6.4256 4.19443 6.58769 4.35652 6.74978 4.52367L8.13263 5.90652C8.66956 6.44345 8.66956 6.93985 8.13263 7.47678C7.98573 7.62368 7.8439 7.77057 7.69701 7.9124C7.27152 8.34802 6.86629 8.75325 6.4256 9.14835C6.41547 9.15848 6.40534 9.16355 6.40027 9.17368C5.96465 9.6093 6.0457 10.0348 6.13688 10.3235C6.14194 10.3387 6.14701 10.3539 6.15207 10.3691C6.51171 11.2403 7.01825 12.0609 7.78818 13.0386L7.79325 13.0436C9.19129 14.7658 10.6653 16.1082 12.2913 17.1364C12.499 17.2681 12.7117 17.3745 12.9143 17.4758C13.0967 17.567 13.2689 17.6531 13.4158 17.7443C13.4361 17.7544 13.4563 17.7696 13.4766 17.7797C13.6488 17.8658 13.8109 17.9064 13.9781 17.9064C14.3985 17.9064 14.6619 17.643 14.748 17.5569L16.4803 15.8245C16.6526 15.6523 16.9261 15.4446 17.2452 15.4446C17.5593 15.4446 17.8176 15.6421 17.9746 15.8144C17.9797 15.8194 17.9797 15.8194 17.9848 15.8245L20.7758 18.6155C21.2975 19.1322 21.2975 19.664 20.7808 20.201Z" fill="#C9E265"/>
<path d="M12.9699 5.70893C14.297 5.9318 15.5025 6.55991 16.465 7.52233C17.4274 8.48475 18.0504 9.69031 18.2784 11.0174C18.3341 11.3517 18.6228 11.5848 18.952 11.5848C18.9926 11.5848 19.028 11.5797 19.0686 11.5746C19.4434 11.5138 19.6916 11.1593 19.6308 10.7844C19.3573 9.1787 18.5975 7.71481 17.4375 6.55484C16.2775 5.39488 14.8136 4.63507 13.2079 4.36154C12.8331 4.30076 12.4836 4.54896 12.4177 4.91873C12.3519 5.2885 12.595 5.64814 12.9699 5.70893Z" fill="#C9E265"/>
<path d="M23.9718 10.5869C23.521 7.94279 22.2749 5.53674 20.3602 3.62203C18.4455 1.70732 16.0395 0.461243 13.3954 0.0104253C13.0256 -0.0554245 12.6761 0.197844 12.6102 0.567615C12.5494 0.942452 12.7976 1.29196 13.1725 1.35781C15.5329 1.75798 17.6857 2.87742 19.3978 4.58445C21.1099 6.29654 22.2243 8.44932 22.6245 10.8098C22.6802 11.1441 22.9689 11.3771 23.2981 11.3771C23.3387 11.3771 23.3741 11.372 23.4146 11.367C23.7844 11.3113 24.0377 10.9567 23.9718 10.5869Z" fill="#C9E265"/>
</g>
<defs>
<clipPath id="clip0_98_38">
<rect width="24" height="24" fill="white"/>
</clipPath>
</defs>
</svg>
