<svg width="20" height="20" viewBox="0 0 20 20" fill="none" xmlns="http://www.w3.org/2000/svg">
<path d="M6.67251 1.9875C5.48199 2.3156 4.29957 2.67237 3.12626 3.0575C3.01912 3.09221 2.92388 3.1563 2.85139 3.24249C2.77891 3.32868 2.73208 3.4335 2.71626 3.545C2.02376 8.74125 3.62376 12.5325 5.53251 15.03C6.34065 16.098 7.30427 17.0389 8.39126 17.8213C8.82376 18.1262 9.20626 18.3463 9.50751 18.4875C9.65751 18.5588 9.78001 18.6063 9.87376 18.635C9.91476 18.6494 9.95703 18.6598 10 18.6663C10.0425 18.6593 10.0843 18.6489 10.125 18.635C10.22 18.6063 10.3425 18.5588 10.4925 18.4875C10.7925 18.3463 11.1763 18.125 11.6088 17.8213C12.6957 17.0388 13.6593 16.098 14.4675 15.03C16.3763 12.5338 17.9763 8.74125 17.2838 3.545C17.2681 3.43345 17.2213 3.32856 17.1488 3.24235C17.0763 3.15614 16.981 3.09208 16.8738 3.0575C16.06 2.79125 14.6863 2.3575 13.3275 1.98875C11.94 1.6125 10.6638 1.33375 10 1.33375C9.33751 1.33375 8.06001 1.6125 6.67251 1.98875V1.9875ZM6.34001 0.7C7.69626 0.33125 9.13751 0 10 0C10.8625 0 12.3038 0.33125 13.66 0.7C15.0475 1.075 16.4463 1.51875 17.2688 1.7875C17.6126 1.90106 17.9175 2.10933 18.1484 2.38838C18.3792 2.66742 18.5266 3.00592 18.5738 3.365C19.3188 8.96125 17.59 13.1088 15.4925 15.8525C14.6031 17.0262 13.5425 18.0598 12.3463 18.9188C11.9326 19.216 11.4944 19.4773 11.0363 19.7C10.6863 19.865 10.31 20 10 20C9.69001 20 9.31501 19.865 8.96376 19.7C8.50565 19.4773 8.06739 19.216 7.65376 18.9188C6.45754 18.0598 5.39698 17.0262 4.50751 15.8525C2.41001 13.1088 0.681257 8.96125 1.42626 3.365C1.47337 3.00592 1.62081 2.66742 1.85165 2.38838C2.0825 2.10933 2.38737 1.90106 2.73126 1.7875C3.92525 1.39601 5.12851 1.03341 6.34001 0.7Z" fill="#737373"/>
<path d="M11.875 8.12499C11.8752 8.5129 11.7551 8.89132 11.5312 9.20811C11.3073 9.52489 10.9907 9.76444 10.625 9.89374L11.1063 12.3812C11.1238 12.4717 11.121 12.5649 11.0983 12.6542C11.0756 12.7435 11.0333 12.8267 10.9747 12.8978C10.916 12.9689 10.8424 13.0261 10.759 13.0654C10.6757 13.1047 10.5847 13.125 10.4925 13.125H9.5075C9.41545 13.1248 9.32458 13.1043 9.24137 13.065C9.15816 13.0256 9.08467 12.9684 9.02616 12.8973C8.96764 12.8263 8.92555 12.7432 8.90287 12.6539C8.8802 12.5647 8.87751 12.4716 8.895 12.3812L9.375 9.89374C9.05095 9.77917 8.76463 9.57774 8.54732 9.31145C8.33001 9.04516 8.19008 8.72426 8.14281 8.38382C8.09555 8.04338 8.14277 7.69649 8.27932 7.38108C8.41587 7.06566 8.63648 6.79384 8.91707 6.59533C9.19765 6.39682 9.5274 6.27925 9.87028 6.25547C10.2132 6.23169 10.556 6.30262 10.8613 6.4605C11.1666 6.61838 11.4226 6.85714 11.6014 7.15069C11.7802 7.44424 11.8748 7.78129 11.875 8.12499Z" fill="#737373"/>
</svg>
