<svg width="40" height="40" viewBox="0 0 40 40" fill="none" xmlns="http://www.w3.org/2000/svg">
<path d="M12.87 11.506C12.718 11.884 12.586 12.266 12.474 12.656C13.096 12.846 13.734 13.056 14.372 13.292C14.7434 11.9678 15.3856 10.7351 16.258 9.672L22.586 16L21.396 17.19C21.9016 17.6257 22.3761 18.0961 22.816 18.598L24 17.414L30.33 23.744C29.2752 24.6082 28.0539 25.246 26.742 25.618C26.976 26.258 27.186 26.894 27.376 27.518C29.4456 26.9136 31.313 25.7601 32.78 24.18C33.7329 23.1587 34.5004 21.979 35.048 20.694C36.1 18.214 36.28 15.454 35.588 12.878C35.04 10.8501 33.9702 9.00114 32.4851 7.5154C31.0001 6.02965 29.1517 4.95897 27.124 4.41C24.6032 3.73465 21.9312 3.89607 19.51 4.87C18.0152 5.47507 16.6572 6.37426 15.5166 7.51419C14.376 8.65413 13.476 10.0116 12.87 11.506ZM33.28 12.266C32.6544 12.6793 31.9253 12.9087 31.1758 12.9282C30.4262 12.9476 29.6862 12.7563 29.04 12.376L31.744 9.67C32.398 10.47 32.91 11.346 33.28 12.266ZM27.594 13.82C29.444 15.138 31.872 15.28 33.846 14.25C34.099 15.6687 34.0422 17.1254 33.6794 18.5201C33.3165 19.9147 32.6563 21.2144 31.744 22.33L25.414 16L27.594 13.82ZM26.18 12.406L24 14.586L17.672 8.256C18.7874 7.34408 20.0868 6.68409 21.4811 6.32128C22.8753 5.95847 24.3316 5.9014 25.75 6.154C25.2394 7.13476 25.0094 8.23741 25.0853 9.3405C25.1612 10.4436 25.54 11.5044 26.18 12.406ZM27.624 10.96C27.244 10.3136 27.053 9.57353 27.0728 8.82396C27.0926 8.07439 27.3224 7.34543 27.736 6.72C28.656 7.09 29.53 7.602 30.33 8.256L27.624 10.96ZM12.294 22.292C12.4815 22.1045 12.7358 21.9992 13.001 21.9992C13.2662 21.9992 13.5205 22.1045 13.708 22.292L17.708 26.292C17.8958 26.4795 18.0014 26.7339 18.0016 26.9993C18.0018 27.2647 17.8965 27.5192 17.709 27.707C17.5215 27.8948 17.2671 28.0004 17.0017 28.0006C16.7364 28.0007 16.4818 27.8955 16.294 27.708L12.294 23.708C12.2009 23.6151 12.127 23.5048 12.0766 23.3833C12.0262 23.2618 12.0002 23.1315 12.0002 23C12.0002 22.8685 12.0262 22.7382 12.0766 22.6167C12.127 22.4952 12.2009 22.3849 12.294 22.292ZM4.08001 17.762C3.93907 17.196 3.94559 16.6032 4.09896 16.0405C4.25234 15.4777 4.54743 14.9636 4.95607 14.5473C5.36471 14.1311 5.87325 13.8265 6.43311 13.6628C6.99297 13.499 7.58547 13.4815 8.15401 13.612C9.97801 13.996 12.288 14.596 14.552 15.504C16.804 16.408 19.074 17.642 20.76 19.326C22.448 21.016 23.676 23.286 24.568 25.536C25.466 27.796 26.048 30.098 26.418 31.914C26.5432 32.4793 26.5223 33.0671 26.3573 33.6221C26.1923 34.177 25.8886 34.6808 25.475 35.0858C25.0613 35.4909 24.5513 35.7839 23.993 35.9372C23.4347 36.0905 22.8465 36.099 22.284 35.962C18.774 35.174 13.22 33.492 9.90601 30.18C6.60001 26.872 4.89201 21.296 4.08001 17.762ZM7.74201 15.57C6.65401 15.342 5.78201 16.23 6.03001 17.316C6.83601 20.832 8.45201 25.896 11.32 28.766C14.192 31.638 19.232 33.226 22.722 34.012C23.798 34.252 24.678 33.392 24.458 32.312C24.0509 30.2519 23.4661 28.2311 22.71 26.272C21.868 24.15 20.764 22.16 19.346 20.74C17.93 19.324 15.936 18.214 13.806 17.36C11.686 16.508 9.49801 15.938 7.74201 15.57Z" fill="#F40E8B"/>
</svg>
