<svg width="52" height="52" viewBox="0 0 52 52" fill="none" xmlns="http://www.w3.org/2000/svg">
<path d="M26 1.04004C12.2148 1.04004 1.04 12.2148 1.04 26C1.04 39.7852 12.2148 50.96 26 50.96C39.7852 50.96 50.96 39.7852 50.96 26C50.96 12.2148 39.7852 1.04004 26 1.04004ZM36.153 21.4864C36.1634 21.6996 36.166 21.9128 36.166 22.1208C36.166 28.6208 31.2234 36.1114 22.1806 36.1114C19.5086 36.1159 16.8921 35.3485 14.6458 33.9014C15.028 33.9482 15.4206 33.9664 15.8184 33.9664C18.122 33.9664 20.241 33.1838 21.9232 31.863C20.8981 31.8429 19.9047 31.5035 19.0817 30.892C18.2586 30.2805 17.6468 29.4275 17.3316 28.4518C18.0678 28.5918 18.8262 28.5625 19.5494 28.366C18.4367 28.141 17.4361 27.5381 16.7172 26.6596C15.9984 25.781 15.6055 24.6808 15.6052 23.5456V23.4858C16.2682 23.8524 17.0274 24.076 17.8334 24.102C16.7903 23.4076 16.0518 22.341 15.7691 21.1202C15.4864 19.8994 15.6807 18.6167 16.3124 17.5344C17.5473 19.0528 19.0873 20.295 20.8327 21.1804C22.5781 22.0659 24.49 22.575 26.4446 22.6746C26.1961 21.6198 26.3031 20.5125 26.7488 19.5247C27.1946 18.537 27.9542 17.7242 28.9096 17.2127C29.865 16.7012 30.9625 16.5197 32.0317 16.6964C33.1009 16.8731 34.0818 17.398 34.8218 18.1896C35.922 17.972 36.9771 17.5684 37.9418 16.9962C37.5751 18.1354 36.8074 19.1027 35.7812 19.7184C36.7558 19.6011 37.7075 19.339 38.6048 18.941C37.9457 19.9288 37.1153 20.7908 36.153 21.4864Z" fill="white"/>
</svg>
