<svg width="20" height="20" viewBox="0 0 20 20" fill="none" xmlns="http://www.w3.org/2000/svg">
<path d="M13.248 12.5469C13.7207 12.293 14.2617 12.1484 14.8379 12.1484H14.8398C14.8984 12.1484 14.9258 12.0781 14.8828 12.0391C14.2836 11.5013 13.5991 11.067 12.8574 10.7539C12.8496 10.75 12.8418 10.748 12.834 10.7441C14.0469 9.86328 14.8359 8.43164 14.8359 6.81641C14.8359 4.14062 12.6719 1.97266 10.0019 1.97266C7.33202 1.97266 5.16991 4.14062 5.16991 6.81641C5.16991 8.43164 5.95897 9.86328 7.17382 10.7441C7.166 10.748 7.15819 10.75 7.15038 10.7539C6.27733 11.123 5.49413 11.6523 4.8203 12.3281C4.15036 12.9968 3.61701 13.7896 3.24999 14.6621C2.88888 15.5165 2.69399 16.432 2.67577 17.3594C2.67525 17.3802 2.6789 17.401 2.68652 17.4204C2.69414 17.4398 2.70557 17.4575 2.72013 17.4724C2.73469 17.4873 2.75209 17.4992 2.77131 17.5073C2.79052 17.5154 2.81117 17.5195 2.83202 17.5195H4.00194C4.08593 17.5195 4.15624 17.4512 4.15819 17.3672C4.19725 15.8594 4.80077 14.4473 5.86913 13.377C6.97264 12.2695 8.44139 11.6602 10.0039 11.6602C11.1113 11.6602 12.1738 11.9668 13.0898 12.541C13.1134 12.5558 13.1404 12.5641 13.1681 12.5652C13.1959 12.5662 13.2235 12.5599 13.248 12.5469ZM10.0039 10.1758C9.10936 10.1758 8.26757 9.82617 7.6328 9.19141C7.32049 8.8799 7.07289 8.50968 6.90428 8.10207C6.73568 7.69446 6.64938 7.25751 6.65038 6.81641C6.65038 5.91992 6.99999 5.07617 7.6328 4.44141C8.26561 3.80664 9.10741 3.45703 10.0039 3.45703C10.9004 3.45703 11.7402 3.80664 12.375 4.44141C12.6873 4.75291 12.9349 5.12313 13.1035 5.53074C13.2721 5.93836 13.3584 6.3753 13.3574 6.81641C13.3574 7.71289 13.0078 8.55664 12.375 9.19141C11.7402 9.82617 10.8984 10.1758 10.0039 10.1758ZM17.1875 14.8242H15.5469V13.1836C15.5469 13.0977 15.4766 13.0273 15.3906 13.0273H14.2969C14.2109 13.0273 14.1406 13.0977 14.1406 13.1836V14.8242H12.5C12.4141 14.8242 12.3437 14.8945 12.3437 14.9805V16.0742C12.3437 16.1602 12.4141 16.2305 12.5 16.2305H14.1406V17.8711C14.1406 17.957 14.2109 18.0273 14.2969 18.0273H15.3906C15.4766 18.0273 15.5469 17.957 15.5469 17.8711V16.2305H17.1875C17.2734 16.2305 17.3437 16.1602 17.3437 16.0742V14.9805C17.3437 14.8945 17.2734 14.8242 17.1875 14.8242Z" fill="white"/>
</svg>
