<svg width="52" height="52" viewBox="0 0 52 52" fill="none" xmlns="http://www.w3.org/2000/svg">
<path d="M30.1678 25.5658L24.3282 22.841C23.8186 22.6044 23.4 22.8696 23.4 23.4338V28.5662C23.4 29.1304 23.8186 29.3956 24.3282 29.159L30.1652 26.4342C30.6774 26.195 30.6774 25.805 30.1678 25.5658ZM26 1.04004C12.2148 1.04004 1.04 12.2148 1.04 26C1.04 39.7852 12.2148 50.96 26 50.96C39.7852 50.96 50.96 39.7852 50.96 26C50.96 12.2148 39.7852 1.04004 26 1.04004ZM26 36.14C13.2236 36.14 13 34.9882 13 26C13 17.0118 13.2236 15.86 26 15.86C38.7764 15.86 39 17.0118 39 26C39 34.9882 38.7764 36.14 26 36.14Z" fill="white"/>
</svg>
